<svg width="64" height="64" viewBox="0 0 64 64" fill="none" xmlns="http://www.w3.org/2000/svg">
    <path
        d="M60 28.166H4C1.79087 28.166 0 29.9569 0 32.166C0 34.3751 1.79087 36.166 4 36.166H60C62.2091 36.166 64 34.3751 64 32.166C64 29.9569 62.2091 28.166 60 28.166Z"
        fill="white" />
    <path
        d="M4 17.5H60C62.2091 17.5 64 15.7091 64 13.5C64 11.2909 62.2091 9.5 60 9.5H4C1.79087 9.5 0 11.2909 0 13.5C0 15.7091 1.79087 17.5 4 17.5Z"
        fill="white" />
    <path
        d="M60 46.834H4C1.79087 46.834 0 48.6249 0 50.834C0 53.0431 1.79087 54.834 4 54.834H60C62.2091 54.834 64 53.0431 64 50.834C64 48.6249 62.2091 46.834 60 46.834Z"
        fill="white" />
</svg>