<svg width="52" height="52" viewBox="0 0 52 52" fill="none" xmlns="http://www.w3.org/2000/svg">
    <g clipPath="url(#clip0_2051_4814)">
        <path
            d="M40.2113 27.6532C40.2633 23.6015 42.3866 19.8597 45.8381 17.7385C43.652 14.6142 40.1181 12.7054 36.307 12.5862C32.2965 12.1659 28.4095 14.9847 26.3663 14.9847C24.2841 14.9847 21.1381 12.6274 17.7495 12.6967C13.2926 12.8419 9.23662 15.314 7.06779 19.2119C2.45062 27.2069 5.89345 38.9589 10.3178 45.422C12.5321 48.5875 15.117 52.1214 18.5035 51.9979C21.8163 51.8614 23.0535 49.8854 27.051 49.8854C31.0116 49.8854 32.173 51.9979 35.6266 51.9177C39.18 51.8592 41.4203 48.7392 43.5566 45.5434C45.147 43.2879 46.3711 40.7962 47.1815 38.1594C42.9608 36.374 40.2156 32.2379 40.2113 27.6532Z"
            fill="white" />
        <path
            d="M33.6874 8.33517C35.6244 6.00817 36.5799 3.01817 36.348 0C33.3884 0.312 30.6519 1.72683 28.6889 3.96283C26.7497 6.17067 25.766 9.05667 25.9567 11.9903C28.9575 12.0207 31.8067 10.673 33.6874 8.33517Z"
            fill="white" />
    </g>
    <defs>
        <clipPath id="clip0_2051_4814">
            <rect width="52" height="52" fill="white" />
        </clipPath>
    </defs>
</svg>
    