<svg width="128" height="128" viewBox="0 0 128 128" fill="none" xmlns="http://www.w3.org/2000/svg">
    <g clipPath="url(#clip0_2065_4571)">
        <path d="M68.4671 0.156098C59.3235 -0.483683 50.149 0.848074 41.5646 4.06126C32.9802 7.27444 25.1862 12.2941 18.7099 18.7805C12.2336 25.2669 7.2261 33.0688 4.02632 41.6582C0.826538 50.2476 -0.490902 59.4241 0.163146 68.5668C2.51515 102.449 32.4458 128.007 69.7845 128.007H101.342C108.412 127.998 115.19 125.186 120.189 120.187C125.188 115.188 128 108.41 128.008 101.34V65.8201C128.207 49.3798 122.18 33.4729 111.136 21.293C100.091 9.11316 84.8484 1.56216 68.4671 0.156098ZM64.0085 26.6734C66.1302 26.6734 68.165 27.5163 69.6653 29.0166C71.1656 30.5169 72.0085 32.5517 72.0085 34.6734C72.0085 36.7952 71.1656 38.83 69.6653 40.3303C68.165 41.8306 66.1302 42.6734 64.0085 42.6734C61.8867 42.6734 59.8519 41.8306 58.3516 40.3303C56.8513 38.83 56.0085 36.7952 56.0085 34.6734C56.0085 32.5517 56.8513 30.5169 58.3516 29.0166C59.8519 27.5163 61.8867 26.6734 64.0085 26.6734ZM74.6751 96.0068C74.6751 97.4213 74.1132 98.7778 73.1131 99.778C72.1129 100.778 70.7563 101.34 69.3418 101.34C67.9273 101.34 66.5708 100.778 65.5706 99.778C64.5704 98.7778 64.0085 97.4213 64.0085 96.0068V64.0068H58.6751C57.2607 64.0068 55.9041 63.4449 54.9039 62.4447C53.9037 61.4445 53.3418 60.0879 53.3418 58.6734C53.3418 57.2589 53.9037 55.9024 54.9039 54.9022C55.9041 53.902 57.2607 53.3401 58.6751 53.3401H64.0085C66.8375 53.3401 69.5506 54.4639 71.5509 56.4643C73.5513 58.4647 74.6751 61.1778 74.6751 64.0068V96.0068Z" fill="white" />
    </g>
    <defs>
        <clipPath id="clip0_2065_4571">
            <rect width="128" height="128" fill="white" />
        </clipPath>
    </defs>
</svg>
    