<svg width="128" height="128" viewBox="0 0 128 128" fill="none" xmlns="http://www.w3.org/2000/svg">
    <g clipPath="url(#clip0_2065_4577)">
        <path d="M68.4577 0.147227C49.8977 -1.10611 31.791 5.68856 18.7137 18.7766C5.63634 31.8752 -1.12633 50.0139 0.153667 68.5526C2.50567 102.441 32.4363 127.998 69.775 127.998H101.332C116.036 127.998 127.999 116.035 127.999 101.331V65.8112C127.999 31.2566 101.85 2.41923 68.4577 0.147227ZM83.7697 76.2272C85.855 78.3126 85.855 81.6832 83.7697 83.7686C82.7297 84.8086 81.3643 85.3312 79.999 85.3312C78.6337 85.3312 77.2683 84.8086 76.2283 83.7686L63.999 71.5392L51.7697 83.7686C50.7297 84.8086 49.3643 85.3312 47.999 85.3312C46.6337 85.3312 45.2683 84.8086 44.2283 83.7686C42.143 81.6832 42.143 78.3126 44.2283 76.2272L56.4577 63.9979L44.2283 51.7686C42.143 49.6832 42.143 46.3126 44.2283 44.2272C46.3137 42.1419 49.6843 42.1419 51.7697 44.2272L63.999 56.4566L76.2283 44.2272C78.3137 42.1419 81.6843 42.1419 83.7697 44.2272C85.855 46.3126 85.855 49.6832 83.7697 51.7686L71.5403 63.9979L83.7697 76.2272V76.2272Z" fill="white" />
    </g>
    <defs>
        <clipPath id="clip0_2065_4577">
            <rect width="128" height="128" fill="white" />
        </clipPath>
    </defs>
</svg>