<svg width="128" height="128" viewBox="0 0 128 128" fill="none" xmlns="http://www.w3.org/2000/svg">
    <g clipPath="url(#clip0_2065_4574)">
        <path d="M68.4671 0.156098C59.3235 -0.483683 50.149 0.848074 41.5646 4.06126C32.9802 7.27444 25.1862 12.2941 18.7099 18.7805C12.2336 25.2669 7.2261 33.0688 4.02632 41.6582C0.826538 50.2476 -0.490902 59.4241 0.163146 68.5668C2.51515 102.449 32.4458 128.007 69.7845 128.007H101.342C108.412 127.998 115.19 125.186 120.189 120.187C125.188 115.188 128 108.41 128.008 101.34V65.8201C128.207 49.3798 122.18 33.4729 111.136 21.293C100.091 9.11316 84.8484 1.56216 68.4671 0.156098ZM99.7418 51.8041L63.5125 87.5748C61.5133 89.5663 58.8064 90.6845 55.9845 90.6845C53.1626 90.6845 50.4557 89.5663 48.4565 87.5748L28.2751 67.8201C27.2638 66.83 26.6872 65.4786 26.6722 64.0633C26.6572 62.6481 27.205 61.2848 28.1951 60.2734C29.1853 59.2621 30.5366 58.6855 31.9519 58.6705C33.3672 58.6555 34.7305 59.2033 35.7418 60.1934L55.9711 79.9641L92.2698 44.2308C93.2934 43.3301 94.6231 42.8557 95.9857 42.905C97.3483 42.9542 98.6402 43.5235 99.5961 44.4958C100.552 45.468 101.099 46.7694 101.125 48.1326C101.151 49.4958 100.654 50.8173 99.7365 51.8254L99.7418 51.8041Z" fill="white"/>
    </g>
    <defs>
        <clipPath id="clip0_2065_4574">
            <rect width="128" height="128" fill="white"/>
        </clipPath>
    </defs>
</svg>