<svg width="128" height="128" viewBox="0 0 128 128" fill="none" xmlns="http://www.w3.org/2000/svg">
    <g clipPath="url(#clip0_2065_4580)">
        <path d="M68.4535 0.144128C49.9362 -1.09321 31.7815 5.68013 18.7095 18.7735C5.63219 31.8721 -1.13048 50.0108 0.154853 68.5495C2.50152 102.437 32.4322 127.995 69.7762 127.995H101.334C116.038 127.995 128 116.032 128 101.328V65.8081C127.995 31.2535 101.84 2.41613 68.4535 0.144128ZM63.9949 101.328C59.5789 101.328 55.9949 97.7441 55.9949 93.3281C55.9949 88.9121 59.5789 85.3281 63.9949 85.3281C68.4109 85.3281 71.9949 88.9121 71.9949 93.3281C71.9949 97.7441 68.4109 101.328 63.9949 101.328ZM69.3282 69.3281C69.3282 72.2775 66.9389 74.6615 63.9949 74.6615C61.0509 74.6615 58.6615 72.2775 58.6615 69.3281V26.6615C58.6615 23.7121 61.0509 21.3281 63.9949 21.3281C66.9389 21.3281 69.3282 23.7121 69.3282 26.6615V69.3281Z" fill="white" />
    </g>
    <defs>
        <clipPath id="clip0_2065_4580">
            <rect width="128" height="128" fill="white" />
        </clipPath>
    </defs>
</svg>
    