<svg width="128" height="128" viewBox="0 0 128 128" fill="none" xmlns="http://www.w3.org/2000/svg">
    <g clipPath="url(#clip0_2084_4672)">
        <path
            d="M64 0C51.342 0 38.9683 3.75353 28.4435 10.7859C17.9188 17.8184 9.71575 27.8138 4.87174 39.5083C0.0277303 51.2027 -1.23968 64.071 1.22977 76.4858C3.69922 88.9006 9.79463 100.304 18.7452 109.255C27.6958 118.205 39.0995 124.301 51.5143 126.77C63.929 129.24 76.7973 127.972 88.4918 123.128C100.186 118.284 110.182 110.081 117.214 99.5565C124.246 89.0318 128 76.658 128 64C127.982 47.0318 121.233 30.7638 109.235 18.7654C97.2363 6.76708 80.9683 0.0183524 64 0V0ZM69.3334 63.3547C69.3339 64.2587 69.1047 65.1481 68.6671 65.9392C68.2296 66.7304 67.5981 67.3973 66.832 67.8773L46.352 80.6773C45.7567 81.0492 45.094 81.3003 44.4016 81.416C43.7093 81.5318 43.0009 81.5101 42.317 81.3521C41.6331 81.1941 40.9869 80.903 40.4155 80.4953C39.8441 80.0876 39.3586 79.5713 38.9867 78.976C38.6148 78.3807 38.3638 77.7179 38.248 77.0256C38.1322 76.3333 38.154 75.6249 38.312 74.941C38.4699 74.257 38.7611 73.6109 39.1688 73.0395C39.5765 72.4681 40.0927 71.9826 40.688 71.6107L58.6667 60.4V37.3333C58.6667 35.9188 59.2286 34.5623 60.2288 33.5621C61.229 32.5619 62.5855 32 64 32C65.4145 32 66.7711 32.5619 67.7713 33.5621C68.7715 34.5623 69.3334 35.9188 69.3334 37.3333V63.3547Z"
            fill="white" />
    </g>
    <defs>
        <clipPath id="clip0_2084_4672">
            <rect width="128" height="128" fill="white" />
        </clipPath>
    </defs>
</svg>
    