<svg width="64" height="54" viewBox="0 0 64 54" fill="none" xmlns="http://www.w3.org/2000/svg">
    <path
        d="M47.9333 14.0857C47.048 13.9097 46.3253 13.3577 45.9547 12.5684C41.816 3.84572 32.24 -1.03162 22.6613 0.733717C13.936 2.33372 7.096 9.29905 5.63733 18.0697C5.20533 20.6591 5.23733 23.251 5.72533 25.7764C5.88533 26.6004 5.53067 27.5177 4.80267 28.1791C1.74933 30.9551 0 34.9097 0 39.0324C0 47.1177 6.57867 53.6991 14.6667 53.6991H44C55.0293 53.6991 64 44.7284 64 33.6991C64 24.1924 57.2427 15.9444 47.9307 14.0884L47.9333 14.0857ZM40.3253 34.2511L33.1067 41.4697C32.0747 42.5017 30.7173 43.0217 29.36 43.0271L29.336 43.0324L29.312 43.0271C27.9547 43.0217 26.5973 42.5017 25.5653 41.4697L18.3467 34.2511C17.304 33.2084 17.304 31.523 18.3467 30.4804C19.3893 29.4377 21.0747 29.4377 22.1173 30.4804L26.6693 35.0324V21.6991C26.6693 20.2244 27.864 19.0324 29.336 19.0324C30.808 19.0324 32.0027 20.2244 32.0027 21.6991V35.0324L36.5547 30.4804C37.5973 29.4377 39.2827 29.4377 40.3253 30.4804C41.368 31.523 41.368 33.2084 40.3253 34.2511V34.2511Z"
        fill="white" />
</svg>
    