<svg width="64" height="64" viewBox="0 0 64 64" fill="none" xmlns="http://www.w3.org/2000/svg">
    <g clip-path="url(#clip0_2488_5621)">
        <path
            d="M23.2 48.0017H8C4.01867 48.0017 0 44.9777 0 38.2257V24.7857C0.0560724 18.6581 2.35047 12.7625 6.45114 8.20897C10.5518 3.65546 16.1758 0.758276 22.264 0.0629902C25.6996 -0.186412 29.1487 0.306675 32.3768 1.50874C35.6049 2.71081 38.5365 4.59369 40.9722 7.02944C43.408 9.46519 45.2908 12.3967 46.4929 15.6248C47.695 18.853 48.1881 22.302 47.9387 25.7377C47.2425 31.8284 44.3428 37.4542 39.7861 41.5551C35.2294 45.656 29.3301 47.9489 23.2 48.0017ZM53.3333 24.215H53.3013C53.3013 24.847 53.3013 25.479 53.2693 26.1137C52.24 40.535 39.0587 52.743 24.224 53.2843V53.3243C26.0923 56.5646 28.7796 59.2568 32.0166 61.1308C35.2536 63.0048 38.9264 63.9949 42.6667 64.0017H56C58.1217 64.0017 60.1566 63.1588 61.6569 61.6585C63.1571 60.1582 64 58.1234 64 56.0017V42.6683C63.9962 38.9273 63.0086 35.253 61.1364 32.0141C59.2642 28.7752 56.5732 26.0855 53.3333 24.215Z"
            fill="white" />
    </g>
    <defs>
        <clipPath id="clip0_2488_5621">
            <rect width="64" height="64" fill="white" />
        </clipPath>
    </defs>
</svg>
    