<svg width="128" height="128" viewBox="0 0 128 128" fill="none" xmlns="http://www.w3.org/2000/svg">
    <g clipPath="url(#clip0_2084_5743)">
        <path
            d="M83.7697 44.2211C84.7777 45.2238 85.3323 46.5624 85.3323 47.9918C85.3323 49.4211 84.7777 50.7544 83.7697 51.7624L53.3323 82.1998C51.3163 84.2158 48.639 85.3251 45.791 85.3251H42.6657V82.1998C42.6657 79.3944 43.807 76.6424 45.791 74.6584L76.2283 44.2211C78.3137 42.1411 81.6843 42.1411 83.7697 44.2211ZM127.999 65.8051V101.325C127.999 116.029 116.036 127.992 101.332 127.992H69.775C32.4363 127.992 2.511 102.434 0.153667 68.5464C-1.12633 50.0078 5.63633 31.8638 18.7137 18.7704C31.7963 5.67177 49.9777 -1.10156 68.4577 0.146436C101.85 2.4131 127.999 31.2558 127.999 65.8104V65.8051ZM95.999 47.9918C95.999 43.7198 94.3297 39.6984 91.311 36.6798C85.071 30.4398 74.927 30.4398 68.687 36.6798L38.2497 67.1171C34.2177 71.1438 31.999 76.5038 31.999 82.1998V90.6584C31.999 93.6024 34.383 95.9918 37.3323 95.9918H45.791C51.487 95.9918 56.847 93.7678 60.8737 89.7411L91.311 59.3038C94.3297 56.2798 95.999 52.2638 95.999 47.9864V47.9918Z"
            fill="white" />
    </g>
    <defs>
        <clipPath id="clip0_2084_5743">
            <rect width="128" height="128" fill="white" />
        </clipPath>
    </defs>
</svg>
    