<svg width="32" height="32" viewBox="0 0 32 32" fill="none" xmlns="http://www.w3.org/2000/svg">
    <g clip-path="url(#clip0_2111_6141)">
        <path d="M11.6 24.0008H4C2.00933 24.0008 0 22.4888 0 19.1128V12.3928C0.0280362 9.32906 1.17524 6.38124 3.22557 4.10449C5.2759 1.82773 8.08789 0.379138 11.132 0.0314951C12.8498 -0.0932058 14.5743 0.153337 16.1884 0.754371C17.8025 1.35541 19.2682 2.29685 20.4861 3.51472C21.704 4.73259 22.6454 6.19836 23.2465 7.81242C23.8475 9.42649 24.094 11.151 23.9693 12.8688C23.6212 15.9142 22.1714 18.7271 19.8931 20.7776C17.6147 22.828 14.6651 23.9745 11.6 24.0008ZM26.6667 12.1075H26.6507C26.6507 12.4235 26.6507 12.7395 26.6347 13.0568C26.12 20.2675 19.5293 26.3715 12.112 26.6422V26.6622C13.0461 28.2823 14.3898 29.6284 16.0083 30.5654C17.6268 31.5024 19.4632 31.9974 21.3333 32.0008H28C29.0609 32.0008 30.0783 31.5794 30.8284 30.8293C31.5786 30.0791 32 29.0617 32 28.0008V21.3342C31.9981 19.4636 31.5043 17.6265 30.5682 16.007C29.6321 14.3876 28.2866 13.0428 26.6667 12.1075Z" fill="url(#paint0_linear_2111_6141)" />
    </g>
    <defs>
        <linearGradient id="paint0_linear_2111_6141" x1="0" y1="0" x2="33.0338" y2="1.10536" gradientUnits="userSpaceOnUse">
            <stop stop-color="#F7A92F" />
            <stop offset="1" stop-color="#F16B1F" />
        </linearGradient>
        <clipPath id="clip0_2111_6141">
            <rect width="32" height="32" fill="white" />
        </clipPath>
    </defs>
</svg>
