<svg width="64" height="64" viewBox="0 0 64 64" fill="none" xmlns="http://www.w3.org/2000/svg">
    <g clipPath="url(#clip0_2488_5318)">
        <path
            d="M26.3413 45.6587C29.3653 48.68 34.6347 48.68 37.656 45.6587L56 27.3147V10.6667C56 4.784 51.216 0 45.3333 0H18.6667C12.784 0 8 4.784 8 10.6667V27.3147L26.3413 45.6587ZM21.3333 10.6667H42.6667C46.1547 10.6827 46.152 15.9867 42.6667 16H21.3333C17.8453 15.984 17.848 10.6827 21.3333 10.6667ZM21.3333 21.3333H37.3333C40.8213 21.3493 40.8187 26.6533 37.3333 26.6667H21.3333C17.8453 26.6507 17.848 21.3493 21.3333 21.3333ZM62.6667 28.1867C63.5093 29.96 64 31.8987 64 33.8853V50.664C64 58.016 58.0187 63.9973 50.6667 63.9973H13.3333C5.98133 63.9973 0 58.016 0 50.664V33.8853C0 31.896 0.490667 29.96 1.33333 28.1867L22.5733 49.4293C27.5387 54.6 36.4667 54.6027 41.4293 49.4293L62.6693 28.1867H62.6667Z"
            fill="white" />
    </g>
    <defs>
        <clipPath id="clip0_2488_5318">
            <rect width="64" height="64" fill="white" />
        </clipPath>
    </defs>
</svg>