<svg width="128" height="128" viewBox="0 0 128 128" fill="none" xmlns="http://www.w3.org/2000/svg">
    <g clipPath="url(#clip0_2243_5386)">
        <path
            d="M127.755 29.2246L82.8587 74.1206C77.8527 79.114 71.0706 81.9181 64 81.9181C56.9294 81.9181 50.1473 79.114 45.1413 74.1206L0.245333 29.2246C0.170667 30.0673 0 30.8299 0 31.6673V95.6673C0.00846857 102.737 2.8207 109.515 7.81984 114.514C12.819 119.513 19.5968 122.325 26.6667 122.334H101.333C108.403 122.325 115.181 119.513 120.18 114.514C125.179 109.515 127.992 102.737 128 95.6673V31.6673C128 30.8299 127.829 30.0673 127.755 29.2246Z"
            fill="white" />
        <path
            d="M75.3171 66.5787L124.032 17.8587C121.672 13.9457 118.344 10.7069 114.368 8.45456C110.392 6.20226 105.903 5.01248 101.333 5H26.6664C22.097 5.01248 17.6078 6.20226 13.6319 8.45456C9.65605 10.7069 6.32766 13.9457 3.96777 17.8587L52.6824 66.5787C55.6882 69.5723 59.7576 71.2532 63.9998 71.2532C68.242 71.2532 72.3114 69.5723 75.3171 66.5787Z"
            fill="white" />
    </g>
    <defs>
        <clipPath id="clip0_2243_5386">
            <rect width="128" height="128" fill="white" />
        </clipPath>
    </defs>
</svg>