<svg width="128" height="128" viewBox="0 0 128 128" fill="none" xmlns="http://www.w3.org/2000/svg">
    <g clipPath="url(#clip0_2081_4643)">
        <path
            d="M63.9999 85.1468C75.7776 85.1468 85.3252 75.5991 85.3252 63.8214C85.3252 52.0438 75.7776 42.4961 63.9999 42.4961C52.2222 42.4961 42.6746 52.0438 42.6746 63.8214C42.6746 75.5991 52.2222 85.1468 63.9999 85.1468Z"
            fill="white" />
        <path
            d="M124.09 50.0614C115.821 36.5944 97.0116 14 63.9999 14C30.9881 14 12.1791 36.5944 3.91017 50.0614C-1.30339 58.494 -1.30339 69.149 3.91017 77.5819C12.1791 91.0489 30.9881 113.643 63.9999 113.643C97.0116 113.643 115.821 91.0489 124.09 77.5819C129.303 69.149 129.303 58.494 124.09 50.0614ZM63.9999 95.8096C46.3334 95.8096 32.0117 81.488 32.0117 63.8215C32.0117 46.1551 46.3334 31.8334 63.9999 31.8334C81.6663 31.8334 95.988 46.1551 95.988 63.8215C95.9703 81.4807 81.6591 95.7919 63.9999 95.8096Z"
            fill="white" />
    </g>
    <defs>
        <clipPath id="clip0_2081_4643">
            <rect width="128" height="128" fill="white" />
        </clipPath>
    </defs>
</svg>
    