<svg width="128" height="128" viewBox="0 0 128 128" fill="none" xmlns="http://www.w3.org/2000/svg">
    <g clipPath="url(#clip0_2081_4640)">
        <path
            d="M124.09 49.8031C119.277 41.9217 113.206 34.8818 106.118 28.9628L121.045 14.0351C123.091 11.9171 123.032 8.54212 120.914 6.49663C118.848 4.50112 115.573 4.50112 113.507 6.49663L97.2728 22.7519C87.2093 16.7746 75.7043 13.659 63.9999 13.7419C30.9934 13.7419 12.1844 36.3363 3.91017 49.8033C-1.30339 58.2359 -1.30339 68.891 3.91017 77.3238C8.72314 85.2052 14.7941 92.2451 21.8823 98.1641L6.95454 113.092C4.83658 115.137 4.77785 118.513 6.82334 120.63C8.86883 122.748 12.2441 122.807 14.3618 120.761C14.4063 120.718 14.45 120.675 14.493 120.63L30.7642 104.359C40.8152 110.336 52.3065 113.456 63.9999 113.385C97.0064 113.385 115.815 90.7906 124.09 77.3236C129.303 68.891 129.303 58.2359 124.09 49.8031ZM32.012 63.5635C31.9818 45.9263 46.2547 31.6041 63.8919 31.5738C70.5652 31.5623 77.0745 33.6418 82.5053 37.5199L74.7641 45.261C71.5143 43.3012 67.795 42.2566 64.0001 42.2381C52.2225 42.2381 42.6748 51.7858 42.6748 63.5635C42.6933 67.3583 43.7379 71.0777 45.6977 74.3275L37.9565 82.0686C34.091 76.6723 32.0123 70.2012 32.012 63.5635ZM64.0001 95.5516C57.3623 95.5513 50.8912 93.4726 45.495 89.607L53.2361 81.8659C56.4859 83.8257 60.2053 84.8703 64.0001 84.8888C75.7778 84.8888 85.3255 75.3411 85.3255 63.5635C85.307 59.7686 84.2624 56.0492 82.3026 52.7994L90.0437 45.0583C100.293 59.4115 96.9666 79.3561 82.6135 89.6055C77.1827 93.4836 70.6734 95.5631 64.0001 95.5516Z"
            fill="white" />
    </g>
    <defs>
        <clipPath id="clip0_2081_4640">
            <rect width="128" height="128" fill="white" />
        </clipPath>
    </defs>
</svg>
    