<svg width="128" height="128" viewBox="0 0 128 128" fill="none" xmlns="http://www.w3.org/2000/svg">
    <g clipPath="url(#clip0_2243_5383)">
        <path
            d="M34.8507 118.854C33.6849 118.853 32.5513 118.471 31.6235 117.765C30.6956 117.059 30.0245 116.069 29.713 114.946C29.4014 113.822 29.4666 112.628 29.8984 111.545C30.3302 110.462 31.1049 109.55 32.104 108.95C51 97.6003 51 73.227 51 58.667C51 54.4235 52.6857 50.3538 55.6863 47.3532C58.6869 44.3527 62.7565 42.6669 67 42.6669C71.2435 42.6669 75.3131 44.3527 78.3137 47.3532C81.3143 50.3538 83 54.4235 83 58.667C83 60.0814 82.4381 61.438 81.4379 62.4382C80.4377 63.4384 79.0812 64.0003 77.6667 64.0003C76.2522 64.0003 74.8956 63.4384 73.8954 62.4382C72.8952 61.438 72.3333 60.0814 72.3333 58.667C72.3333 57.2525 71.7714 55.8959 70.7712 54.8957C69.771 53.8955 68.4145 53.3336 67 53.3336C65.5855 53.3336 64.229 53.8955 63.2288 54.8957C62.2286 55.8959 61.6667 57.2525 61.6667 58.667C61.6667 74.3843 61.6667 103.648 37.592 118.096C36.7636 118.592 35.8162 118.854 34.8507 118.854ZM61.32 126.432C73.4907 114.166 80.6 96.9176 82.4453 75.1203C82.5075 74.4211 82.4311 73.7164 82.2204 73.0468C82.0097 72.3772 81.6689 71.7558 81.2175 71.2181C80.7661 70.6805 80.213 70.2373 79.5899 69.9139C78.9669 69.5905 78.2861 69.3933 77.5867 69.3336C76.8868 69.2618 76.1797 69.3317 75.5074 69.5389C74.8351 69.7462 74.2113 70.0866 73.6734 70.54C73.1354 70.9934 72.6942 71.5504 72.376 72.1778C72.0578 72.8053 71.8692 73.4904 71.8213 74.1923C70.1627 93.6963 64.2533 108.326 53.752 118.891C52.7548 119.895 52.1971 121.253 52.2016 122.668C52.2061 124.083 52.7724 125.438 53.776 126.435C54.7796 127.432 56.1382 127.99 57.553 127.985C58.9677 127.981 60.3228 127.415 61.32 126.411V126.432ZM89.0533 125.44C92.2884 120.065 94.9825 114.382 97.096 108.475C97.5378 107.154 97.4452 105.712 96.838 104.459C96.2307 103.205 95.157 102.238 93.8465 101.766C92.536 101.294 91.0927 101.353 89.8252 101.931C88.5577 102.509 87.5667 103.56 87.064 104.859C85.1862 110.097 82.7959 115.136 79.928 119.904C79.5645 120.503 79.3226 121.168 79.216 121.861C79.1095 122.554 79.1405 123.261 79.3071 123.941C79.4738 124.622 79.7729 125.263 80.1873 125.828C80.6018 126.394 81.1235 126.871 81.7227 127.235C82.9328 127.969 84.3849 128.192 85.7597 127.856C86.4404 127.689 87.0816 127.39 87.6468 126.976C88.2119 126.561 88.6898 126.039 89.0533 125.44ZM101.667 91.6856C103.643 80.7943 104.536 69.7342 104.333 58.667C104.328 51.1112 102.031 43.7348 97.7443 37.5126C93.4579 31.2904 87.3844 26.5152 80.3265 23.8181C73.2685 21.121 65.5583 20.629 58.2147 22.407C50.8711 24.185 44.2399 28.1494 39.1973 33.7763C38.7062 34.2936 38.3239 34.9042 38.073 35.572C37.822 36.2397 37.7076 36.951 37.7365 37.6637C37.7653 38.3764 37.9368 39.0762 38.2409 39.7214C38.5449 40.3667 38.9753 40.9444 39.5066 41.4204C40.0379 41.8964 40.6593 42.261 41.334 42.4926C42.0086 42.7241 42.7229 42.818 43.4345 42.7687C44.1462 42.7193 44.8406 42.5277 45.4769 42.2051C46.1131 41.8826 46.6782 41.4357 47.1387 40.8909C50.7402 36.8711 55.4767 34.0387 60.7222 32.7681C65.9677 31.4975 71.4753 31.8485 76.5171 33.7747C81.5589 35.7009 85.8975 39.1117 88.9595 43.5562C92.0216 48.0007 93.663 53.2697 93.6667 58.667C93.8634 69.0499 93.0381 79.427 91.2027 89.6483C90.9334 91.0358 91.2258 92.4735 92.0158 93.6455C92.8059 94.8175 94.0288 95.628 95.416 95.899C95.7549 95.9667 96.0997 96.0007 96.4453 96.0003C97.6807 95.9971 98.8766 95.5651 99.8289 94.7782C100.781 93.9913 101.431 92.8982 101.667 91.6856ZM40.3333 58.667C40.3318 57.1784 40.4549 55.6923 40.7013 54.2243C40.8606 53.5176 40.8742 52.7858 40.7413 52.0736C40.6084 51.3615 40.3319 50.6839 39.9285 50.0821C39.5251 49.4804 39.0033 48.9671 38.395 48.5737C37.7867 48.1802 37.1046 47.9148 36.3904 47.7937C35.6762 47.6725 34.9447 47.6981 34.2407 47.869C33.5367 48.0398 32.8749 48.3523 32.2956 48.7874C31.7163 49.2224 31.2318 49.7709 30.8715 50.3994C30.5112 51.0279 30.2827 51.7232 30.2 52.4429C29.8479 54.499 29.6695 56.581 29.6667 58.667C29.6667 83.4403 22.488 96.0003 8.33333 96.0003C6.91885 96.0003 5.56229 96.5622 4.5621 97.5624C3.5619 98.5626 3 99.9191 3 101.334C3 102.748 3.5619 104.105 4.5621 105.105C5.56229 106.105 6.91885 106.667 8.33333 106.667C28.968 106.667 40.3333 89.6003 40.3333 58.667ZM113.4 124.875C122.177 103.937 126.36 81.3596 125.667 58.667C125.691 49.8079 123.684 41.0611 119.8 33.0989C119.494 32.4686 119.066 31.9048 118.542 31.4397C118.017 30.9746 117.407 30.6173 116.744 30.3882C116.082 30.1592 115.381 30.0629 114.681 30.1047C113.982 30.1466 113.297 30.3259 112.667 30.6323C112.036 30.9387 111.473 31.3663 111.007 31.8906C110.542 32.4149 110.185 33.0257 109.956 33.6881C109.727 34.3505 109.631 35.0515 109.672 35.7511C109.714 36.4507 109.894 37.1353 110.2 37.7656C113.374 44.2753 115.015 51.4249 115 58.667C115.671 79.8337 111.818 100.9 103.699 120.459C103.41 121.098 103.249 121.787 103.227 122.488C103.204 123.188 103.32 123.887 103.568 124.542C103.816 125.198 104.19 125.799 104.67 126.31C105.15 126.821 105.726 127.232 106.365 127.52C107.056 127.838 107.808 128.002 108.568 128C109.588 127.996 110.585 127.699 111.442 127.145C112.298 126.591 112.978 125.803 113.4 124.875ZM19 74.667V58.667C19.0141 45.9409 24.0758 33.7401 33.0745 24.7414C42.0732 15.7427 54.2739 10.6811 67 10.6669C77.3914 10.6323 87.5077 14.0044 95.8 20.2669C96.9316 21.1156 98.354 21.48 99.7543 21.28C101.155 21.08 102.418 20.3319 103.267 19.2003C104.115 18.0687 104.48 16.6463 104.28 15.246C104.08 13.8458 103.332 12.5823 102.2 11.7336C92.0633 4.08252 79.7 -0.0385856 67 0.000272291C51.4463 0.0186215 36.5348 6.20545 25.5367 17.2036C14.5385 28.2018 8.35168 43.1132 8.33333 58.667V74.667C8.33333 76.0814 8.89524 77.438 9.89543 78.4382C10.8956 79.4384 12.2522 80.0003 13.6667 80.0003C15.0812 80.0003 16.4377 79.4384 17.4379 78.4382C18.4381 77.438 19 76.0814 19 74.667Z"
            fill="white" />
    </g>
    <defs>
        <clipPath id="clip0_2243_5383">
            <rect width="128" height="128" fill="white" />
        </clipPath>
    </defs>
</svg>