<svg width="65" height="66" viewBox="0 0 65 66" fill="none" xmlns="http://www.w3.org/2000/svg">
    <mask id="mask0_2207_947" style="mask-type:alpha" maskUnits="userSpaceOnUse" x="0" y="0"
        width="65" height="66">
        <path
            d="M62.1854 42.3851C63.2988 43.1044 64.3757 44.1764 64.7588 45.6425V0.872948H0.127346L0.127346 46.3845C0.360252 45.5185 0.909567 44.7289 1.53498 44.0052C1.3851 43.3637 1.37632 42.6653 1.61448 41.9203C1.97754 40.7846 2.8312 39.8329 3.86331 38.9498C4.88715 38.0738 6.38029 37.654 7.46141 37.4562C8.04655 37.3491 8.62012 37.2878 9.11417 37.272C9.25282 37.2676 9.39202 37.2665 9.52874 37.2699C10.3838 36.6545 11.2823 36.1336 12.3037 35.9377C13.4532 35.7172 14.5284 35.9425 15.6152 36.3915C16.8834 35.5359 18.3603 35.1603 19.8996 35.3706C21.3803 35.5728 22.7738 36.2955 24.0023 37.4134C25.672 36.6586 27.4376 36.6201 28.873 37.0364C29.7887 37.302 30.6782 37.7844 31.3193 38.5083C31.3298 38.5203 31.3403 38.5323 31.3508 38.5444C31.8219 38.352 32.298 38.2084 32.7951 38.1266C33.8824 37.9475 34.9047 38.0898 35.9919 38.372C37.0824 37.5885 38.3034 37.1077 39.6493 37.0338C40.8593 36.9674 42.0556 37.2362 43.226 37.7629C44.1457 36.9276 45.1257 36.3501 46.2742 36.1351C47.509 35.9039 48.7171 36.141 49.8933 36.5161C50.8483 36.059 51.8315 35.8974 52.8889 36.1407C53.8223 36.3555 54.686 36.872 55.473 37.4107C56.2667 37.3837 57.2057 37.5287 58.0183 38.2838C58.7757 38.9875 59.1905 40.039 59.4969 41.1782C60.4513 41.4598 61.3774 41.8632 62.1854 42.3851Z"
            fill="black" />
        <path
            d="M4.38155 53.7962C3.88759 53.4276 3.53704 53.0531 3.18186 52.6061C2.79346 52.3996 2.30785 52.1057 1.90193 51.6652C1.41304 51.1347 1.12649 50.5085 0.949343 49.8058C0.581544 49.3339 0.285993 48.8141 0.127346 48.2448V65.1121L33.1983 65.1194C32.6135 65.0884 32.0602 64.9663 31.5349 64.8209C30.8126 64.9968 30.1309 65.1205 29.4456 65.1121C28.6065 65.1017 27.8835 64.8981 27.1311 64.5855C26.1225 64.8504 25.1079 64.9036 24.1019 64.7121C23.063 64.5144 22.1137 64.071 21.25 63.4465C19.9798 63.5211 18.7936 63.4871 17.7324 63.1338C16.733 62.8011 15.9606 62.2307 15.32 61.4711C15.0765 61.4941 14.8442 61.5101 14.6239 61.5169C14.1001 61.5331 13.5295 61.5029 12.977 61.3241C12.0411 61.0213 11.4862 60.4137 11.1286 59.7667C10.3856 59.7189 9.61378 59.5624 8.88907 59.207C7.88553 58.7148 7.11168 57.9105 6.62701 56.8159C6.11538 56.5508 5.59559 56.1938 5.179 55.6632C4.73566 55.0984 4.50176 54.4614 4.38155 53.7962Z"
            fill="black" />
        <path
            d="M35.7038 64.6531C35.0567 64.9226 34.4259 65.0839 33.763 65.1195L64.7588 65.1264L64.6163 49.4935C64.175 50.5872 63.3675 51.4878 62.2042 52.1244C62.1594 52.3579 62.091 52.5853 61.9997 52.805C61.7172 53.4851 61.2607 53.9863 60.8255 54.3419C60.4045 54.6858 59.943 54.9423 59.5234 55.1308C59.2954 55.8492 58.9021 56.5808 58.15 57.1808C57.3206 57.8425 56.2225 58.2006 54.921 58.4342C54.5228 59.0395 54.052 59.584 53.4338 59.9991C52.7592 60.4521 52.0342 60.6685 51.2899 60.7711C50.7409 61.3161 50.1152 61.7712 49.3248 62.054C48.5596 62.3278 47.7592 62.396 46.9213 62.3655C46.393 62.7986 45.8253 63.1451 45.1434 63.3764C44.2464 63.6807 43.2965 63.733 42.2706 63.7322C41.3138 64.3953 40.3202 64.8386 39.1599 64.9809C38.0472 65.1175 36.9147 64.9586 35.7038 64.6531Z"
            fill="black" />
        <path
            d="M4.35831 51.1808C3.40994 50.697 2.87608 50.4246 2.61997 48.9877C1.19749 47.4232 1.71376 46.3852 3.61296 44.4139C2.88884 43.0454 3.119 41.9628 5.03709 40.3216C6.32813 39.2169 9.41244 38.9121 10.0321 39.1481C11.4329 38.0674 12.3654 37.5548 13.5297 37.6749C13.7127 37.6938 13.9014 37.7283 14.0986 37.7787C14.494 37.8797 14.9233 38.0446 15.4085 38.2754C14.8923 38.6926 14.6837 39.2738 14.5971 39.8888C14.5546 40.1905 14.5415 40.5004 14.5359 40.8031C14.5969 40.364 15.0577 39.3778 15.7198 38.6606C15.7655 38.6111 15.8122 38.5628 15.8597 38.5162C16.4163 37.9698 17.0303 37.5817 17.6775 37.3554C19.5942 36.6852 21.8032 37.4332 23.6835 39.6897C25.8046 38.0948 28.4093 38.4083 29.6629 39.4166C30.2314 39.8739 30.522 40.4741 30.3636 41.104C31.05 40.6798 31.6238 40.3714 32.1563 40.1669C32.7564 39.9365 33.3042 39.8379 33.9018 39.8543C34.0602 39.8587 34.2221 39.8711 34.3894 39.8913C34.8251 39.9439 35.2975 40.049 35.8401 40.2012C35.3776 40.8201 35.1528 41.3027 35.0017 41.8461C34.904 42.1975 34.8372 42.5743 34.7569 43.0298C34.8573 42.8176 34.9458 42.6216 35.0286 42.4381L35.0287 42.4378C35.1122 42.2527 35.1901 42.0802 35.2689 41.9164C35.3332 41.7826 35.3982 41.6546 35.4673 41.5304C35.6651 41.1752 35.8972 40.8502 36.2479 40.506C36.2999 40.4551 36.3544 40.4037 36.4118 40.3517C37.0805 39.7464 37.7784 39.3193 38.5085 39.0746C40.0451 38.5594 41.7243 38.852 43.5734 39.9906C45.7949 37.4614 47.2735 37.4722 50.073 38.4861C51.9242 37.2756 53.0162 37.8732 54.9778 39.2684C56.1217 39.1073 56.7815 39.2495 57.3069 40.3638C57.3654 40.4881 57.4223 40.6244 57.478 40.7737C57.6228 41.1617 57.7595 41.6375 57.8966 42.2173C57.1214 42.1256 56.5267 42.1652 56.048 42.2625C55.5337 42.3671 55.1534 42.5385 54.8273 42.6854C54.5767 42.7983 54.3581 42.8968 54.1353 42.9395C54.4188 42.8879 54.673 42.8384 54.9063 42.7929C55.3746 42.7018 55.7589 42.6269 56.128 42.5838C56.2457 42.5701 56.3618 42.5596 56.4786 42.5528C56.8929 42.5287 57.3157 42.5514 57.8463 42.6432C57.8923 42.6512 57.9392 42.6597 57.9869 42.6687C58.6817 42.8 59.368 43.004 60.0012 43.2713C61.496 43.9023 62.695 44.8859 63.0121 46.099C63.4634 47.8261 63.2465 50.0077 60.3942 50.9436C60.855 52.7469 58.84 53.5309 57.9869 53.7722C57.6963 55.5336 57.1042 56.3338 53.8043 56.7812C52.8977 58.4472 52.1625 58.9469 50.4341 59.038C49.2872 60.38 48.3851 60.7142 46.2816 60.5125C45.8321 60.9528 45.438 61.2613 45.018 61.4752C44.8165 61.5777 44.6091 61.6585 44.3867 61.7216C43.8206 61.8822 43.1575 61.9281 42.2495 61.9268C42.9914 61.3441 43.4368 60.8213 43.6533 60.0395C43.7567 59.666 43.8079 59.2335 43.8142 58.707C43.6294 59.2569 43.458 59.7023 43.2626 60.0886C42.9995 60.6087 42.6926 61.0219 42.2502 61.4394C42.179 61.5066 42.1043 61.5739 42.0257 61.6418C41.9174 61.7353 41.8018 61.8299 41.6777 61.9268C40.3375 62.9737 39.226 63.3426 37.714 63.1931C37.0761 63.1301 36.3669 62.9748 35.5392 62.7392C33.9621 63.5476 33.0989 63.4126 31.5672 62.9498C31.0536 63.0848 30.6298 63.1841 30.2545 63.2432C30.0755 63.2714 29.9075 63.2905 29.7461 63.3C29.0568 63.3406 28.4865 63.2062 27.6855 62.8596C28.291 62.6396 28.9331 62.1341 29.3391 61.493C29.4338 61.3435 29.5157 61.1865 29.5813 61.024C29.524 61.0777 29.467 61.1316 29.4099 61.1856L29.4099 61.1857C29.3145 61.276 29.2188 61.3665 29.1214 61.4563C28.7626 61.787 28.3799 62.1076 27.8978 62.3691C27.7924 62.4263 27.6822 62.4807 27.5664 62.5317C27.4978 62.562 27.4272 62.591 27.3545 62.6188C25.8764 63.1842 24.5192 63.1471 23.2546 62.5483C22.7622 62.3152 22.2838 61.9968 21.8179 61.5958C18.7565 61.8493 17.3912 61.5577 16.1608 59.5496C15.304 59.6716 14.6624 59.7341 14.1693 59.7103C13.882 59.6964 13.645 59.6531 13.4453 59.5752C12.9599 59.3858 12.6945 58.9916 12.4596 58.3159C12.8761 58.3431 13.3442 58.1424 13.7541 57.8658C14.1342 57.6093 14.4642 57.2876 14.6563 57.022C14.1914 57.3342 13.3946 57.8102 12.4847 57.9333C12.4168 57.9425 12.3482 57.9497 12.2791 57.9548C11.6097 58.0037 10.9637 57.981 10.3815 57.8365C9.30982 57.5705 8.45417 56.8919 8.06639 55.4873C6.71671 54.9387 6.1654 54.4448 6.0804 52.7491C5.23322 52.2649 4.89901 51.8927 4.36523 51.1844L4.35831 51.1808Z"
            fill="black" />
    </mask>
    <g mask="url(#mask0_2207_947)">
        <path
            d="M17.9962 28.5564L19.1997 38.2456C19.1997 38.2456 17.0319 39.0014 15.5888 39.2386C14.114 39.4809 11.4062 39.5094 11.4062 39.5094C10.5182 29.9077 9.8912 20.3595 9.05927 10.5922L17.2655 8.42182L17.0624 9.0312C18.8905 7.60932 21.328 7.20307 21.328 7.20307C21.328 7.20307 20.8412 7.8598 20.9218 7.81245C24.3544 7.23343 26.2563 6.73222 29.6112 5.47678C30.3499 9.12181 30.6196 11.2182 30.845 15.0456C25.3589 16.3163 22.2859 16.9834 16.8227 17.9343L17.3041 22.147C20.2158 21.6798 21.9532 21.3009 25.218 20.6124C26.0055 22.6683 26.067 24.1235 25.9101 26.9315C22.8053 27.6236 21.0817 27.9902 17.9962 28.5564Z"
            fill="url(#paint0_linear_2207_947)" />
        <path
            d="M53.2188 30.1562C49.3594 31.9843 44.6875 32.3906 44.6875 32.3906C48.1406 26.0937 54.1052 17.9687 54.1052 9.90011L44.0781 10.2499L44.4844 10.8593C42.25 9.64056 39.4063 10.2499 39.4063 10.2499L39.8125 10.8593L35.1406 12.0448C34.3523 14.6906 34.1335 16.5505 33.9219 20.1698C38.5938 18.3749 44.0781 17.9687 44.0781 17.9687C44.0781 22.2343 34.3655 30.9687 34.3655 40.4723H36.0807L43.0918 39.9908L49.6817 39.2085C49.6817 39.2085 52.3498 38.4783 52.9315 36.6207C53.5132 34.7631 53.601 30.4951 53.2188 30.1562Z"
            fill="url(#paint1_linear_2207_947)" />
        <path
            d="M23.6836 39.6897C26.7667 37.3715 30.8715 39.0852 30.3638 41.104C32.5627 39.7452 33.6055 39.5744 35.8403 40.2013C35.0786 41.2203 34.9616 41.8699 34.757 43.0298C35.3133 41.8552 35.5005 41.1768 36.412 40.3517C38.4881 38.4724 40.8458 38.3111 43.5736 39.9906C45.7951 37.4615 47.2737 37.4722 50.0732 38.4861C51.9243 37.2757 53.0163 37.8733 54.978 39.2685C56.5806 39.0428 57.2332 39.4124 57.8968 42.2173C55.6485 41.9514 54.9181 42.7895 54.1355 42.9395C55.8684 42.6239 56.5054 42.3886 57.9871 42.6687C60.3218 43.11 62.5609 44.372 63.0122 46.099C63.4636 47.8261 63.2467 50.0077 60.3943 50.9437C60.8552 52.7469 58.8401 53.5309 57.9871 53.7722C57.6965 55.5337 57.1043 56.3338 53.8044 56.7813C52.8979 58.4472 52.1627 58.947 50.4343 59.0381C49.2874 60.38 48.3852 60.7142 46.2818 60.5125C45.0677 61.7016 44.258 61.9298 42.2496 61.9268C43.3459 61.0658 43.7948 60.3356 43.8143 58.7071C43.2854 60.2807 42.8671 60.9979 41.6779 61.9268C39.7722 63.4153 38.3291 63.5332 35.5394 62.7392C33.9622 63.5476 33.099 63.4127 31.5674 62.9499C29.7628 63.424 29.0676 63.4577 27.6857 62.8596C28.4325 62.5883 29.2349 61.8827 29.5814 61.024C28.9534 61.6127 28.3537 62.2368 27.3547 62.6189C25.301 63.4043 23.4807 63.0269 21.818 61.5958C18.7566 61.8494 17.3914 61.5577 16.161 59.5496C13.5908 59.9155 12.9571 59.7465 12.4598 58.3159C13.2624 58.3685 14.2573 57.574 14.6564 57.022C14.1569 57.3576 13.2739 57.8822 12.2793 57.9548C10.3777 58.0937 8.66499 57.655 8.06655 55.4874C6.71687 54.9387 6.16556 54.4448 6.08056 52.7491C5.23339 52.2649 4.89917 51.8928 4.36539 51.1844L4.35847 51.1808C3.4101 50.697 2.87625 50.4246 2.62013 48.9878C1.19765 47.4232 1.71393 46.3852 3.61312 44.414C2.889 43.0455 3.11916 41.9628 5.03725 40.3216C6.32829 39.217 9.4126 38.9122 10.0323 39.1481C12.0947 37.5569 13.1422 37.1974 15.4087 38.2755C14.6392 38.8973 14.5532 39.8833 14.5361 40.8031C14.6013 40.3337 15.1234 39.239 15.8599 38.5162C18.0648 36.352 21.1684 36.6712 23.6836 39.6897Z"
            fill="url(#paint2_radial_2207_947)" />
    </g>
    <defs>
        <linearGradient id="paint0_linear_2207_947" x1="19.9521" y1="5.47678" x2="19.9521"
            y2="39.5094" gradientUnits="userSpaceOnUse">
            <stop stop-color="#F79A08" />
            <stop offset="1" stop-color="#E15100" />
        </linearGradient>
        <linearGradient id="paint1_linear_2207_947" x1="44.0136" y1="9.90011" x2="44.0136"
            y2="40.4723" gradientUnits="userSpaceOnUse">
            <stop stop-color="#F79A08" />
            <stop offset="1" stop-color="#E15100" />
        </linearGradient>
        <radialGradient id="paint2_radial_2207_947" cx="0" cy="0" r="1"
            gradientUnits="userSpaceOnUse"
            gradientTransform="translate(32.4982 38.5165) rotate(89.9932) scale(24.8052 36.6194)">
            <stop stop-color="#F4F4F4" />
            <stop offset="0.442708" stop-color="#F4F4F4" />
            <stop offset="0.78125" stop-color="#E1F5F8" />
            <stop offset="1" stop-color="#97D6DF" />
        </radialGradient>
    </defs>
</svg>