<svg width="64" height="64" viewBox="0 0 64 64" fill="none" xmlns="http://www.w3.org/2000/svg">
    <g clipPath="url(#clip0_2056_4834)">
        <path
            d="M42.6667 5.33333H42.2107C41.1093 2.22933 38.144 0 34.6667 0H29.3333C25.856 0 22.8907 2.22933 21.7893 5.33333H21.3333C13.9813 5.33333 8 11.3147 8 18.6667V50.6667C8 58.0187 13.9813 64 21.3333 64H42.6667C50.0187 64 56 58.0187 56 50.6667V18.6667C56 11.3147 50.0187 5.33333 42.6667 5.33333ZM18.6667 45.3333C15.1787 45.3173 15.1787 40.016 18.6667 40C22.1547 40.016 22.1547 45.3173 18.6667 45.3333ZM20.4453 32C19.2587 32 18.1413 31.5387 17.304 30.6987L14.616 28.1627C13.5467 27.152 13.496 25.464 14.5067 24.392C15.5173 23.32 17.2053 23.272 18.2773 24.2827L20.44 26.3253L24.8133 22.0853C25.8693 21.0613 27.5573 21.0853 28.584 22.144C29.608 23.2 29.584 24.888 28.5253 25.9147L23.56 30.728C22.752 31.5387 21.6347 32 20.448 32H20.4453ZM45.3333 45.3333H29.3333C25.8453 45.3173 25.848 40.016 29.3333 40H45.3333C48.8213 40.016 48.8187 45.3173 45.3333 45.3333ZM45.3333 32H34.6667C31.1787 31.984 31.1813 26.6827 34.6667 26.6667H45.3333C48.8213 26.6827 48.8187 31.984 45.3333 32Z"
            fill="white" />
    </g>
    <defs>
        <clipPath id="clip0_2056_4834">
            <rect width="64" height="64" fill="white" />
        </clipPath>
    </defs>
</svg>
    