<svg width="128" height="128" viewBox="0 0 128 128" fill="none" xmlns="http://www.w3.org/2000/svg">
    <g clipPath="url(#clip0_2051_4720)">
        <path
            d="M8.65565 96C13.0671 103.656 22.8504 106.287 30.5069 101.876C30.5121 101.873 30.5171 101.87 30.5224 101.867L32.8956 100.496C37.3756 104.329 42.5251 107.301 48.0849 109.264V112C48.0849 120.837 55.2484 128 64.0849 128C72.9214 128 80.0849 120.837 80.0849 112V109.264C85.6454 107.298 90.7951 104.322 95.2741 100.485L97.6581 101.861C105.316 106.28 115.107 103.653 119.525 95.9945C123.943 88.3362 121.317 78.546 113.658 74.1277L111.29 72.7625C112.356 66.9622 112.356 61.0163 111.29 55.2158L113.658 53.8505C121.316 49.4322 123.943 39.6422 119.525 31.9837C115.107 24.3255 105.317 21.6988 97.6581 26.117L95.2849 27.4877C90.8004 23.6595 85.6474 20.6925 80.0849 18.736V16C80.0849 7.1635 72.9214 0 64.0849 0C55.2484 0 48.0849 7.1635 48.0849 16V18.736C42.5244 20.7018 37.3746 23.6777 32.8956 27.5147L30.5116 26.1335C22.8531 21.715 13.0631 24.3418 8.6449 32C4.22665 39.6582 6.85315 49.4485 14.5116 53.8667L16.8796 55.232C15.8136 61.0322 15.8136 66.9782 16.8796 72.7787L14.5116 74.144C6.8744 78.574 4.2564 88.345 8.65565 96ZM64.0849 42.6668C75.8669 42.6668 85.4181 52.218 85.4181 64C85.4181 75.782 75.8669 85.3333 64.0849 85.3333C52.3029 85.3333 42.7516 75.782 42.7516 64C42.7516 52.218 52.3029 42.6668 64.0849 42.6668Z"
            fill="#311903" />
    </g>
    <defs>
        <clipPath id="clip0_2051_4720">
            <rect width="128" height="128" fill="#311903" />
        </clipPath>
    </defs>
</svg>