<svg width="128" height="128" viewBox="0 0 128 128" fill="none" xmlns="http://www.w3.org/2000/svg">
    <g clipPath="url(#clip0_2084_4669)">
        <path
            d="M53.3333 122.666C53.3333 124.081 52.7714 125.437 51.7712 126.438C50.771 127.438 49.4145 128 48 128H5.33333C3.91885 128 2.56229 127.438 1.5621 126.438C0.561903 125.437 0 124.081 0 122.666C0 121.252 0.561903 119.895 1.5621 118.895C2.56229 117.895 3.91885 117.333 5.33333 117.333H48C49.4145 117.333 50.771 117.895 51.7712 118.895C52.7714 119.895 53.3333 121.252 53.3333 122.666Z"
            fill="white" />
        <path
            d="M5.33333 106.667H37.3333C38.7478 106.667 40.1044 106.105 41.1046 105.105C42.1048 104.104 42.6667 102.748 42.6667 101.333C42.6667 99.9188 42.1048 98.5623 41.1046 97.5621C40.1044 96.5619 38.7478 96 37.3333 96H5.33333C3.91885 96 2.56229 96.5619 1.5621 97.5621C0.561903 98.5623 0 99.9188 0 101.333C0 102.748 0.561903 104.104 1.5621 105.105C2.56229 106.105 3.91885 106.667 5.33333 106.667Z"
            fill="white" />
        <path
            d="M5.33333 85.3337H26.6667C28.0812 85.3337 29.4377 84.7718 30.4379 83.7716C31.4381 82.7714 32 81.4148 32 80.0003C32 78.5858 31.4381 77.2293 30.4379 76.2291C29.4377 75.2289 28.0812 74.667 26.6667 74.667H5.33333C3.91885 74.667 2.56229 75.2289 1.5621 76.2291C0.561903 77.2293 0 78.5858 0 80.0003C0 81.4148 0.561903 82.7714 1.5621 83.7716C2.56229 84.7718 3.91885 85.3337 5.33333 85.3337Z"
            fill="white" />
        <path
            d="M64 0C47.0261 0 30.7475 6.74284 18.7452 18.7452C6.74284 30.7475 0 47.0261 0 64C0 64.3253 0.0426667 64.64 0.048 64.9653C1.74184 64.3445 3.5294 64.018 5.33333 64H26.6667C29.2848 63.9911 31.8648 64.627 34.179 65.8515C36.4931 67.076 38.4701 68.8515 39.9355 71.0211C41.4009 73.1907 42.3096 75.6878 42.5813 78.2918C42.853 80.8958 42.4793 83.5266 41.4933 85.952C43.677 86.525 45.7133 87.5575 47.4661 88.9804C49.2189 90.4034 50.6479 92.1839 51.6575 94.2032C52.6672 96.2225 53.2343 98.4341 53.3209 100.69C53.4076 102.946 53.0118 105.195 52.16 107.285C54.2929 107.829 56.2878 108.815 58.0158 110.179C59.7437 111.542 61.1662 113.253 62.1912 115.201C63.2162 117.149 63.8209 119.291 63.9662 121.487C64.1115 123.684 63.7942 125.886 63.0347 127.952C63.36 127.952 63.6747 128 64 128C80.9739 128 97.2525 121.257 109.255 109.255C121.257 97.2525 128 80.9739 128 64C128 47.0261 121.257 30.7475 109.255 18.7452C97.2525 6.74284 80.9739 0 64 0V0ZM83.7707 83.7707C82.7705 84.7705 81.4142 85.3322 80 85.3322C78.5858 85.3322 77.2295 84.7705 76.2293 83.7707L60.2293 67.7707C59.2291 66.7707 58.667 65.4144 58.6667 64V37.3333C58.6667 35.9188 59.2286 34.5623 60.2288 33.5621C61.229 32.5619 62.5855 32 64 32C65.4145 32 66.771 32.5619 67.7712 33.5621C68.7714 34.5623 69.3333 35.9188 69.3333 37.3333V61.792L83.7707 76.2293C84.7705 77.2295 85.3322 78.5858 85.3322 80C85.3322 81.4142 84.7705 82.7705 83.7707 83.7707Z"
            fill="white" />
    </g>
    <defs>
        <clipPath id="clip0_2084_4669">
            <rect width="128" height="128" fill="white" />
        </clipPath>
    </defs>
</svg>
    