<svg width="52" height="52" viewBox="0 0 52 52" fill="none" xmlns="http://www.w3.org/2000/svg">
    <g clipPath="url(#clip0_2051_4799)">
        <path
            d="M26 0C11.6415 0 0 11.6393 0 26C0 40.3607 11.6415 52 26 52C40.3585 52 52 40.3585 52 26C52 11.6393 40.3607 0 26 0ZM31.525 9.74783C32.448 8.14883 34.4933 7.60283 36.0902 8.52583C37.6913 9.44883 38.2373 11.492 37.3143 13.091C36.3913 14.69 34.3482 15.236 32.7492 14.313C31.1502 13.39 30.602 11.3447 31.525 9.74783ZM9.16283 29.3432C7.319 29.3432 5.82183 27.846 5.82183 26C5.82183 24.154 7.319 22.659 9.16283 22.659C11.011 22.659 12.5082 24.154 12.5082 26C12.506 27.846 11.011 29.3432 9.16283 29.3432ZM12.1117 29.6638C13.182 28.8015 13.8667 27.482 13.8667 25.9978C13.8667 24.518 13.182 23.1963 12.1117 22.334C13.0152 18.8998 15.1602 15.9683 18.0375 14.0465L20.5205 18.2C18.07 19.9225 16.4667 22.776 16.4667 26C16.4667 29.2262 18.0678 32.0775 20.5205 33.8022L18.0353 37.9535C15.1602 36.0317 13.0152 33.1002 12.1117 29.6638ZM36.0902 43.4763C34.4912 44.3993 32.448 43.8512 31.525 42.2543C30.602 40.6553 31.1502 38.6122 32.7492 37.6892C34.3482 36.7662 36.3913 37.3143 37.3143 38.9112C38.2373 40.5102 37.6892 42.5533 36.0902 43.4763ZM36.1162 36.1942C34.8357 35.7002 33.3493 35.7673 32.0688 36.5083C30.7862 37.2472 29.9845 38.5017 29.7743 39.8602C28.5718 40.1873 27.3065 40.3607 26.0043 40.3607C23.7163 40.3607 21.554 39.8255 19.6343 38.8743L21.9895 34.6472C23.205 35.2148 24.5678 35.5333 26 35.5333C30.9812 35.5333 35.0675 31.7135 35.4943 26.845L40.3325 26.9208C40.105 30.5392 38.5342 33.7935 36.1162 36.1942ZM35.4965 25.155C35.0675 20.2843 30.9812 16.4667 26 16.4667C24.5657 16.4667 23.2028 16.7852 21.983 17.3507L19.63 13.1257C21.5497 12.1723 23.712 11.6393 26 11.6393C27.3043 11.6393 28.5675 11.8148 29.77 12.1398C29.9823 13.4983 30.784 14.7528 32.0667 15.4917C33.3493 16.2327 34.8335 16.2998 36.114 15.8058C38.532 18.2065 40.1028 21.4608 40.3325 25.0792L35.4965 25.155Z"
            fill="white" />
    </g>
    <defs>
        <clipPath id="clip0_2051_4799">
            <rect width="52" height="52" fill="white" />
        </clipPath>
    </defs>
</svg>
    